<svg width="17" height="19" viewBox="0 0 17 19" fill="none" xmlns="http://www.w3.org/2000/svg">
<path d="M6.88867 16.6636C7.03493 16.9169 7.24529 17.1272 7.49861 17.2735C7.75192 17.4197 8.03927 17.4967 8.33177 17.4967C8.62427 17.4967 8.91161 17.4197 9.16493 17.2735C9.41824 17.1272 9.6286 16.9169 9.77486 16.6636" stroke="#A6A09B" stroke-width="1.66639" stroke-linecap="round" stroke-linejoin="round"/>
<path d="M1.0507 11.9362C0.941851 12.0555 0.870021 12.2038 0.843943 12.3632C0.817866 12.5226 0.838664 12.6861 0.903809 12.8339C0.968954 12.9816 1.07564 13.1073 1.21088 13.1955C1.34613 13.2838 1.5041 13.3308 1.66559 13.3309H14.9967C15.1582 13.331 15.3162 13.2841 15.4515 13.1961C15.5869 13.108 15.6937 12.9825 15.759 12.8348C15.8243 12.6871 15.8453 12.5236 15.8195 12.3643C15.7936 12.2049 15.722 12.0564 15.6133 11.937C14.5051 10.7947 13.3303 9.58073 13.3303 5.83218C13.3303 4.50632 12.8036 3.23476 11.8661 2.29723C10.9286 1.35971 9.65703 0.833008 8.33116 0.833008C7.0053 0.833008 5.73374 1.35971 4.79621 2.29723C3.85868 3.23476 3.33199 4.50632 3.33199 5.83218C3.33199 9.58073 2.15635 10.7947 1.0507 11.9362Z" stroke="#A6A09B" stroke-width="1.66639" stroke-linecap="round" stroke-linejoin="round"/>
</svg>
