<svg width="17" height="19" viewBox="0 0 17 19" fill="none" xmlns="http://www.w3.org/2000/svg">
<path d="M6.66504 8.33154V13.3307" stroke="#FF6467" stroke-width="1.66639" stroke-linecap="round" stroke-linejoin="round"/>
<path d="M9.99805 8.33154V13.3307" stroke="#FF6467" stroke-width="1.66639" stroke-linecap="round" stroke-linejoin="round"/>
<path d="M14.1638 4.16553V15.8303C14.1638 16.2722 13.9882 16.6961 13.6757 17.0086C13.3632 17.3211 12.9393 17.4967 12.4974 17.4967H4.16542C3.72346 17.4967 3.29961 17.3211 2.9871 17.0086C2.67459 16.6961 2.49902 16.2722 2.49902 15.8303V4.16553" stroke="#FF6467" stroke-width="1.66639" stroke-linecap="round" stroke-linejoin="round"/>
<path d="M0.833008 4.16553H15.8305" stroke="#FF6467" stroke-width="1.66639" stroke-linecap="round" stroke-linejoin="round"/>
<path d="M4.99902 4.16579V2.4994C4.99902 2.05744 5.17459 1.63359 5.4871 1.32108C5.79961 1.00857 6.22346 0.833008 6.66542 0.833008H9.9982C10.4402 0.833008 10.864 1.00857 11.1765 1.32108C11.489 1.63359 11.6646 2.05744 11.6646 2.4994V4.16579" stroke="#FF6467" stroke-width="1.66639" stroke-linecap="round" stroke-linejoin="round"/>
</svg>
