<svg width="35" height="32" viewBox="0 0 35 32" fill="none" xmlns="http://www.w3.org/2000/svg">
<path d="M17.332 7.53271V30.3975" stroke="#A6A09B" stroke-width="2" stroke-linecap="round" stroke-linejoin="round"/>
<path d="M2.6332 25.4979C2.20005 25.4979 1.78464 25.3259 1.47835 25.0196C1.17207 24.7133 1 24.2979 1 23.8647V2.6332C1 2.20005 1.17207 1.78464 1.47835 1.47835C1.78464 1.17207 2.20005 1 2.6332 1H10.7992C12.5318 1 14.1934 1.68827 15.4186 2.91341C16.6437 4.13854 17.332 5.80018 17.332 7.53278C17.332 5.80018 18.0202 4.13854 19.2454 2.91341C20.4705 1.68827 22.1321 1 23.8647 1H32.0307C32.4639 1 32.8793 1.17207 33.1856 1.47835C33.4919 1.78464 33.6639 2.20005 33.6639 2.6332V23.8647C33.6639 24.2979 33.4919 24.7133 33.1856 25.0196C32.8793 25.3259 32.4639 25.4979 32.0307 25.4979H22.2315C20.9321 25.4979 19.6859 26.0141 18.767 26.933C17.8482 27.8518 17.332 29.0981 17.332 30.3975C17.332 29.0981 16.8158 27.8518 15.8969 26.933C14.9781 26.0141 13.7318 25.4979 12.4324 25.4979H2.6332Z" stroke="#A6A09B" stroke-width="2" stroke-linecap="round" stroke-linejoin="round"/>
</svg>
