<svg width="25" height="25" viewBox="0 0 25 25" fill="none" xmlns="http://www.w3.org/2000/svg">
<path d="M1 12.2495C1 14.4746 1.6598 16.6496 2.89597 18.4997C4.13213 20.3497 5.88914 21.7917 7.94481 22.6432C10.0005 23.4946 12.2625 23.7174 14.4448 23.2833C16.6271 22.8493 18.6316 21.7778 20.205 20.2045C21.7783 18.6311 22.8498 16.6266 23.2838 14.4443C23.7179 12.262 23.4951 9.99999 22.6436 7.94432C21.7922 5.88865 20.3502 4.13164 18.5002 2.89548C16.6501 1.65931 14.475 0.999512 12.25 0.999512C9.10494 1.01134 6.08621 2.23854 3.825 4.42451L1 7.24951" stroke="#4A3B7C" stroke-width="1.99938" stroke-linecap="round" stroke-linejoin="round"/>
<path d="M1 0.999512V7.24951H7.25" stroke="#4A3B7C" stroke-width="1.99938" stroke-linecap="round" stroke-linejoin="round"/>
<path d="M12.25 5.99951V12.2495L17.25 14.7495" stroke="#4A3B7C" stroke-width="1.99938" stroke-linecap="round" stroke-linejoin="round"/>
</svg>
