<svg width="25" height="26" viewBox="0 0 25 26" fill="none" xmlns="http://www.w3.org/2000/svg">
<path d="M16 24.75V14.75C16 14.4185 15.8683 14.1005 15.6339 13.8661C15.3995 13.6317 15.0815 13.5 14.75 13.5H9.75C9.41848 13.5 9.10054 13.6317 8.86612 13.8661C8.6317 14.1005 8.5 14.4185 8.5 14.75V24.75" stroke="#4A3B7C" stroke-width="1.99938" stroke-linecap="round" stroke-linejoin="round"/>
<path d="M1 11.0001C0.999913 10.6364 1.07917 10.2771 1.23223 9.94726C1.3853 9.61737 1.6085 9.32486 1.88625 9.09011L10.6362 1.59011C11.0875 1.20875 11.6592 0.999512 12.25 0.999512C12.8408 0.999512 13.4125 1.20875 13.8638 1.59011L22.6138 9.09011C22.8915 9.32486 23.1147 9.61737 23.2678 9.94726C23.4208 10.2771 23.5001 10.6364 23.5 11.0001V22.2501C23.5 22.9131 23.2366 23.549 22.7678 24.0179C22.2989 24.4867 21.663 24.7501 21 24.7501H3.5C2.83696 24.7501 2.20107 24.4867 1.73223 24.0179C1.26339 23.549 1 22.9131 1 22.2501V11.0001Z" stroke="#4A3B7C" stroke-width="1.99938" stroke-linecap="round" stroke-linejoin="round"/>
</svg>
